# xmcd CD database file
#
# Track frame offsets:
#	150
#	14127
#	26513
#	38007
#	53111
#	66606
#	78128
#	90918
#	103437
#	116848
#	128154
#	141241
#	153254
#	165664
#	178558
#	191558
#	199649
#	210976
#
# Disc length: 2943 seconds
#
# Revision: 3
# Processed by: cddbd v1.5.1PL2 Copyright (c) Steve Scherf et al.
# Submitted via: CDex 1.51
#
DISCID=f50b7d12
DTITLE=Various Artist - Country Roads
DYEAR=1900
DGENRE=Country
TTITLE0=John Denver - Take Me Home Country Roads
TTITLE1=Susan Raye - L.A. International Airport
TTITLE2=Lyonn Anderson - Listen To A Country Song
TTITLE3=Johnny Cash - A Boy Named Sue
TTITLE4=Glen Campbell - Rhinestone Cowboy
TTITLE5=Dolly Parton - Letter To Heaven
TTITLE6=Willie Nelson - To All The Girls I've Loved Before
TTITLE7=The Bellamy Brothers - Let Your Love Flow
TTITLE8=Patti Page - Tennessee Waltz
TTITLE9=Johnny Cash - Oh Lonesome Me
TTITLE10=Kenny Rogers - Ruby Don't Take Your Love To Town
TTITLE11=Billie Jo Spears - Look What They've Done To My Song, Ma
TTITLE12=Bobby Bare - Green Green Gras Of Home
TTITLE13=Kenny Rogers - Reuben James
TTITLE14=John Denver - Annie's Other Song
TTITLE15=George Jones - Jambalaya (On The Bayou)
TTITLE16=Waylon Jennings - Sally Was A Good Old Girl
TTITLE17=Freddy Fender - Six Days On The Road
EXTD=
EXTT0=
EXTT1=
EXTT2=
EXTT3=
EXTT4=
EXTT5=
EXTT6=
EXTT7=
EXTT8=
EXTT9=
EXTT10=
EXTT11=
EXTT12=
EXTT13=
EXTT14=
EXTT15=
EXTT16=
EXTT17=
PLAYORDER=
